<svg width="88" height="160" viewBox="0 0 88 160" fill="none" xmlns="http://www.w3.org/2000/svg">
<path d="M16.7572 30.2421C16.7572 30.2421 10.4682 12.1977 17.5347 0.764568C17.8678 0.225193 18.4882 -0.0626192 19.1172 0.0161308C22.5244 0.443006 33.5128 3.19332 40.1419 20.8708L16.7572 30.2421Z" fill="#68CA44"/>
<path d="M71.8878 30.2416C71.8878 30.2416 78.1769 12.1973 71.1103 0.764141C70.7772 0.224766 70.1569 -0.0630465 69.5278 0.0157035C66.1207 0.442579 55.1322 3.19289 48.5032 20.8704L71.8878 30.2416Z" fill="#68CA44"/>
<path d="M40.1416 20.8719L16.7591 30.2404C16.7591 30.2404 14.0735 22.5322 14.1832 14.0019C14.2435 9.47817 15.0888 4.72379 17.5366 0.760978C17.866 0.227853 18.4776 -0.0649593 19.0995 0.0122282C21.1373 0.264728 25.9385 1.35442 30.886 6.04535C34.1616 9.14348 37.4982 13.8213 40.1416 20.8719Z" fill="#68CA44"/>
<path d="M71.8862 30.2403L48.5037 20.8719C51.028 14.1438 54.1809 9.57563 57.3112 6.47751C62.4105 1.42501 67.4387 0.274385 69.5408 0.0128228C70.1646 -0.0646772 70.778 0.225635 71.1084 0.760323C73.5299 4.68001 74.3837 9.37501 74.4587 13.8566C74.604 22.445 71.8862 30.2403 71.8862 30.2403Z" fill="#68CA44"/>
<path d="M40.1409 20.8719L16.7584 30.2403C16.7584 30.2403 14.0728 22.5322 14.1825 14.0019C17.674 14.8272 21.2459 16.2232 24.7084 18.4316C25.8143 19.1344 27.2712 18.48 27.4712 17.1872C27.8709 14.5857 28.7897 10.5235 30.8853 6.04565C34.1609 9.14347 37.4975 13.8213 40.1409 20.8719Z" fill="#4FC123"/>
<path d="M71.8862 30.2404L48.5037 20.8719C51.028 14.1438 54.1809 9.57566 57.3112 6.47754C59.268 10.7847 60.1418 14.6694 60.5287 17.1872C60.7287 18.48 62.1855 19.1344 63.2915 18.4285C66.9665 16.0847 70.7643 14.6566 74.459 13.8572C74.604 22.445 71.8862 30.2404 71.8862 30.2404Z" fill="#4FC123"/>
<path d="M56.9786 22.0266C55.9895 17.2716 53.171 9.16065 45.1542 2.95378C44.4773 2.42971 43.5229 2.42971 42.8461 2.95378C34.8292 9.16065 32.0107 17.2716 31.0217 22.0266C30.6579 23.7757 28.6976 24.6491 27.137 23.7797C18.5304 18.986 9.32699 20.031 4.01355 21.3172C2.36043 21.7172 2.02168 23.9344 3.4848 24.8019C17.6876 33.2225 20.1439 46.6307 20.1439 46.6307H44.0001H67.8567C67.8567 46.6307 70.3129 33.2225 84.5157 24.8019C85.9789 23.9344 85.6398 21.7172 83.987 21.3172C78.6739 20.031 69.4704 18.986 60.8636 23.7797C59.3026 24.6491 57.3426 23.7757 56.9786 22.0266Z" fill="#47A920"/>
<path d="M70.9869 38.6482C69.1848 41.9076 68.3532 44.6188 68.0307 45.876H19.9694C19.6469 44.6188 18.8154 41.9076 17.0132 38.6482C19.0282 39.2963 21.056 40.1569 23.0513 41.2691C24.9888 42.3491 27.4229 41.2626 27.8772 39.0897C29.1057 33.1838 32.6035 25.5754 42.5651 17.8638C43.4097 17.2126 44.5897 17.2126 45.4341 17.8638C55.396 25.5754 58.8938 33.1835 60.1219 39.0897C60.5763 41.2626 63.0104 42.3491 64.9479 41.2691C66.9441 40.1569 68.9719 39.2963 70.9869 38.6482Z" fill="#409617"/>
<path d="M56.9786 44.0613C55.9895 39.3063 53.171 31.1953 45.1542 24.9884C44.4773 24.4644 43.5229 24.4644 42.8461 24.9884C34.8292 31.1953 32.0107 39.3063 31.0217 44.0613C30.6579 45.8103 28.6976 46.6838 27.137 45.8144C18.5304 41.0206 9.32699 42.0656 4.01355 43.3519C2.36043 43.7519 2.02168 45.9691 3.4848 46.8366C17.6876 55.2572 20.1439 68.6653 20.1439 68.6653H44.0001H67.8567C67.8567 68.6653 70.3129 55.2572 84.5157 46.8366C85.9789 45.9691 85.6398 43.7519 83.987 43.3519C78.6739 42.0656 69.4704 41.0206 60.8636 45.8144C59.3026 46.6841 57.3426 45.8106 56.9786 44.0613Z" fill="#68CA44"/>
<path d="M73.0306 57.4078C68.8202 63.4075 67.8562 68.6653 67.8562 68.6653H20.1434C20.1434 68.6653 19.1793 63.4072 14.969 57.4078C21.7552 52.7172 29.9727 49.9606 38.7996 49.9606H49.1996C58.0268 49.9606 66.2443 52.7169 73.0306 57.4078Z" fill="#4FC123"/>
<path d="M48.8281 160H39.1719C17.6772 160 0.090332 142.414 0.090332 120.919V96.886C0.090332 75.3913 17.6769 57.8044 39.1719 57.8044H48.8284C70.3231 57.8044 87.91 75.391 87.91 96.886V120.919C87.9097 142.414 70.3231 160 48.8281 160Z" fill="#FEDF30"/>
<path d="M87.9081 96.885V120.919C87.9081 142.413 70.3243 160 48.8272 160H39.1725C32.8284 160 26.8268 158.47 21.5168 155.755C24.5434 156.518 27.7034 156.919 30.9559 156.919H40.6106C62.1078 156.919 79.6915 139.332 79.6915 117.838V93.8038C79.6915 78.6506 70.9543 65.4422 58.2662 58.9681C75.2406 63.2135 87.9081 78.6441 87.9081 96.885Z" fill="#F4D01E"/>
<path d="M87.7954 93.8791C86.0048 95.4813 83.896 96.7516 80.5407 96.7516C71.4851 96.7516 71.4851 87.4735 62.4229 87.4735C53.3673 87.4735 53.3673 96.7516 44.3051 96.7516C35.2495 96.7516 35.2495 87.4735 26.1904 87.4735C17.1314 87.4735 17.1314 96.7516 8.07605 96.7516C4.36137 96.7516 2.17012 95.1904 0.25293 93.3485C0.704805 88.3398 2.11543 83.5979 4.2998 79.3048C5.37137 79.7191 6.60387 79.9654 8.07605 79.9654C17.1317 79.9654 17.1317 70.6873 26.1904 70.6873C35.2492 70.6873 35.2495 79.9654 44.3051 79.9654C53.3673 79.9654 53.3673 70.6873 62.4229 70.6873C71.4854 70.6873 71.4854 79.9654 80.5407 79.9654C81.7801 79.9654 82.8482 79.7907 83.7932 79.4894C86.0014 83.8857 87.3982 88.7473 87.7954 93.8791Z" fill="#FAC600"/>
<path d="M87.9081 110.566V120.919C87.9081 123.302 87.6924 125.637 87.278 127.903C85.5937 129.287 83.5737 130.331 80.5402 130.331C71.4846 130.331 71.4846 121.053 62.4224 121.053C53.3668 121.053 53.3668 130.331 44.3046 130.331C35.249 130.331 35.249 121.053 26.1899 121.053C17.1309 121.053 17.1309 130.331 8.07555 130.331C4.59367 130.331 2.44711 128.958 0.612107 127.267C0.269607 125.199 0.0917969 123.08 0.0917969 120.919V109.984C2.0468 111.891 4.25492 113.538 8.07586 113.538C17.1315 113.538 17.1315 104.263 26.1902 104.263C35.249 104.263 35.2493 113.538 44.3049 113.538C53.3671 113.538 53.3671 104.263 62.4227 104.263C71.4852 104.263 71.4852 113.538 80.5405 113.538C83.9674 113.538 86.0937 112.213 87.9081 110.566Z" fill="#FAC600"/>
<path d="M78.0107 146.843C70.8413 154.902 60.3994 160 48.8276 160H39.1729C27.6523 160 17.2548 154.947 10.0857 146.949C17.1898 145.693 17.8538 137.842 26.1904 137.842C35.2494 137.842 35.2494 147.117 44.3051 147.117C53.3673 147.117 53.3673 137.842 62.4229 137.842C70.5538 137.842 71.3891 145.306 78.0107 146.843Z" fill="#FAC600"/>
<path d="M87.7911 93.8829C86.0011 95.4829 83.8939 96.7526 80.5399 96.7526C80.2486 96.7526 79.9639 96.7429 79.6924 96.7232V93.8044C79.6924 88.7098 78.7043 83.8376 76.9111 79.3644C77.9483 79.7441 79.133 79.9666 80.5399 79.9666C81.7802 79.9666 82.8468 79.7901 83.7927 79.4894C84.5105 80.9254 85.1371 82.4051 85.6752 83.9176C86.6196 86.5732 87.2193 89.0685 87.5818 91.8348C87.6486 92.3441 87.7058 92.9335 87.7521 93.3957C87.7586 93.461 87.7652 93.5266 87.7683 93.5919C87.778 93.6866 87.7877 93.7847 87.7911 93.8829Z" fill="#E8B800"/>
<path d="M87.909 110.564V120.921C87.909 123.367 87.7287 125.496 87.2775 127.903C85.5922 129.288 83.5734 130.331 80.54 130.331C79.4962 130.331 78.5734 130.207 77.7456 129.988C79.0087 126.159 79.6925 122.076 79.6925 117.838V113.509C79.964 113.529 80.2487 113.539 80.54 113.539C83.9659 113.539 86.0931 112.213 87.909 110.564Z" fill="#E8B800"/>
<path d="M78.0106 146.843C77.7881 147.095 77.559 147.343 77.3299 147.589C77.0977 147.834 76.8652 148.08 76.6265 148.318C76.1468 148.805 75.6771 149.258 75.1737 149.722C73.409 151.348 71.3915 152.872 69.3543 154.15C67.8362 155.103 66.2477 155.938 64.6043 156.653C62.0931 157.745 59.1834 158.689 56.4959 159.238C56.3356 159.271 56.1787 159.303 56.0187 159.329C54.2709 159.668 52.6124 159.85 50.8287 159.948C50.5309 159.964 50.2299 159.977 49.929 159.984C49.8537 159.987 49.7818 159.987 49.7096 159.987C49.4152 159.997 49.1206 160 48.8262 160H39.1734C38.9771 160 38.7774 160 38.5812 159.997C34.8599 159.935 31.334 159.411 27.7634 158.292C26.9756 158.045 26.1456 157.757 25.414 157.484C25.2209 157.412 25.0281 157.337 24.8349 157.261C24.5306 157.14 24.2296 157.013 23.9287 156.885C23.284 156.61 22.6459 156.319 22.0177 156.008C21.8509 155.926 21.6871 155.844 21.5237 155.756C24.5471 156.519 27.7081 156.918 30.9574 156.918H40.6102C52.9396 156.918 63.9831 151.133 71.1559 142.144C73.0665 144.091 74.9021 146.12 78.0106 146.843Z" fill="#E8B800"/>
</svg>
